# xmcd CD database file
#
# Track frame offsets:
#	150
#	23101
#	42551
#	58902
#	75104
#	96479
#	115939
#	139053
#	147932
#	167942
#	186767
#
# Disc length: 2764 seconds
#
# Revision: 0
# Processed by: cddbd v1.5PL3 Copyright (c) Steve Scherf et al.
# Submitted via: CDex 1.51
#
DISCID=990aca0b
DTITLE=Jimmy Agren - Close Enough For Jazz
DYEAR=2003
DGENRE=Blues
TTITLE0=Can I Be Your Cowbell
TTITLE1=In The Corner
TTITLE2=New Machine
TTITLE3=Close Enough For Jazz
TTITLE4=Who's Lennard
TTITLE5=Lester Howlin Dog
TTITLE6=Troubles Gone
TTITLE7=Fifty Thousand Notes
TTITLE8=Where Are They Going
TTITLE9=Bring Your Stuff
TTITLE10=Make Me Moan
EXTD=YEAR: 2003
EXTT0=
EXTT1=
EXTT2=
EXTT3=
EXTT4=
EXTT5=
EXTT6=
EXTT7=
EXTT8=
EXTT9=
EXTT10=
PLAYORDER=
